<svg width="24" height="24" viewBox="0 0 24 24" fill="none" xmlns="http://www.w3.org/2000/svg">
<path d="M23.625 12C23.6233 13.4913 23.0301 14.921 21.9756 15.9756C20.921 17.0301 19.4913 17.6233 18 17.625H4.125C3.13044 17.625 2.17661 17.2299 1.47335 16.5267C0.770088 15.8234 0.375 14.8696 0.375 13.875C0.375 12.8804 0.770088 11.9266 1.47335 11.2233C2.17661 10.5201 3.13044 10.125 4.125 10.125H17.25C17.5484 10.125 17.8345 10.2435 18.0455 10.4545C18.2565 10.6655 18.375 10.9516 18.375 11.25C18.375 11.5484 18.2565 11.8345 18.0455 12.0455C17.8345 12.2565 17.5484 12.375 17.25 12.375H4.125C3.72718 12.375 3.34564 12.533 3.06434 12.8143C2.78304 13.0956 2.625 13.4772 2.625 13.875C2.625 14.2728 2.78304 14.6544 3.06434 14.9357C3.34564 15.217 3.72718 15.375 4.125 15.375H18C18.8951 15.375 19.7535 15.0194 20.3865 14.3865C21.0194 13.7536 21.375 12.8951 21.375 12C21.375 11.1049 21.0194 10.2465 20.3865 9.61351C19.7535 8.98058 18.8951 8.625 18 8.625H7.5C7.20163 8.625 6.91548 8.50647 6.7045 8.2955C6.49353 8.08452 6.375 7.79837 6.375 7.5C6.375 7.20163 6.49353 6.91548 6.7045 6.7045C6.91548 6.49353 7.20163 6.375 7.5 6.375H18C19.4913 6.37674 20.921 6.96993 21.9756 8.02444C23.0301 9.07896 23.6233 10.5087 23.625 12Z" fill="black"/>
</svg>
